<svg xmlns="http://www.w3.org/2000/svg" width="40" height="40" viewBox="0 0 40 40">
  <defs>
    <filter id="sh" x="-10%" y="-10%" width="130%" height="130%">
      <feDropShadow dx="1" dy="1.5" stdDeviation="1.2" flood-color="#0a1a2e" flood-opacity="0.3"/>
    </filter>
    <linearGradient id="bodyG" x1="0" y1="0" x2="0" y2="1">
      <stop offset="0%" stop-color="#D8E6F2"/>
      <stop offset="100%" stop-color="#B4C8DC"/>
    </linearGradient>
    <linearGradient id="tabG" x1="0" y1="0" x2="0" y2="1">
      <stop offset="0%" stop-color="#C0D0E2"/>
      <stop offset="100%" stop-color="#96AABE"/>
    </linearGradient>
  </defs>
  <g stroke-linecap="round" stroke-linejoin="round" filter="url(#sh)">
    <rect x="4" y="16" width="32" height="19" rx="2" fill="url(#bodyG)" stroke="#19375F" stroke-width="2"/>
    <path d="M4 18v-5a2 2 0 0 1 2-2h10l3 5z" fill="url(#tabG)" stroke="#19375F" stroke-width="2"/>
  </g>
  <path d="M28 22a6 6 0 0 0-10-4.5" fill="none" stroke="#F5923A" stroke-width="2.5" stroke-linecap="round"/>
  <polygon points="17 15 17 21.5 23.5 21.5" fill="#F5923A"/>
  <path d="M16 27a6 6 0 0 0 10 4.5" fill="none" stroke="#F5923A" stroke-width="2.5" stroke-linecap="round"/>
  <polygon points="27 33.5 27 27 20.5 27" fill="#F5923A"/>
</svg>
